<?xml version="1.0" encoding="UTF-8"?>
<!DOCTYPE svg PUBLIC "-//W3C//DTD SVG 1.1//EN" "http://www.w3.org/Graphics/SVG/1.1/DTD/svg11.dtd">
<svg xmlns="http://www.w3.org/2000/svg" version="1.1" width="312px" height="81px" style="shape-rendering:geometricPrecision; text-rendering:geometricPrecision; image-rendering:optimizeQuality; fill-rule:evenodd; clip-rule:evenodd" xmlns:xlink="http://www.w3.org/1999/xlink">
<g><path style="opacity:0.85" fill="#00adef" d="M 20.5,0.5 C 27.2375,-0.804954 31.2375,1.86171 32.5,8.5C 30.2611,16.5688 25.4277,18.5688 18,14.5C 14.3829,8.97924 15.2163,4.31257 20.5,0.5 Z"/></g>
<g><path style="opacity:0.951" fill="#02a94e" d="M -0.5,60.5 C -0.5,47.5 -0.5,34.5 -0.5,21.5C 2.65079,19.417 5.65079,17.0837 8.5,14.5C 11.7861,16.4512 14.7861,18.7846 17.5,21.5C 18.3326,33.4861 18.8326,45.4861 19,57.5C 22.3333,61.5 25.6667,61.5 29,57.5C 29.1674,45.4861 29.6674,33.4861 30.5,21.5C 33.2139,18.7846 36.2139,16.4512 39.5,14.5C 42.1878,17.0222 45.0211,19.3555 48,21.5C 48.1667,28 48.3333,34.5 48.5,41C 48.6148,48.5744 48.1148,56.0744 47,63.5C 38.2984,79.4698 25.7984,83.3031 9.5,75C 4.76212,70.9882 1.42879,66.1548 -0.5,60.5 Z"/></g>
<g><path style="opacity:0.712" fill="#404141" d="M 172.5,23.5 C 174.806,23.9926 177.139,24.3259 179.5,24.5C 179.5,26.1667 179.5,27.8333 179.5,29.5C 177.516,29.6168 175.85,28.9501 174.5,27.5C 174.167,27.8333 173.833,28.1667 173.5,28.5C 175.387,30.0404 177.22,31.7071 179,33.5C 179.769,36.0991 179.602,38.5991 178.5,41C 176.005,41.1575 173.672,41.3241 171.5,41.5C 170.534,39.604 170.201,37.604 170.5,35.5C 172.638,35.703 174.305,36.703 175.5,38.5C 175.833,38.1667 176.167,37.8333 176.5,37.5C 174.851,35.3501 173.018,33.3501 171,31.5C 170.109,28.5024 170.609,25.8357 172.5,23.5 Z"/></g>
<g><path style="opacity:0.745" fill="#404141" d="M 63.5,24.5 C 65.5,24.5 67.5,24.5 69.5,24.5C 68.3486,29.1662 68.3486,33.8329 69.5,38.5C 70.086,38.2907 70.586,37.9574 71,37.5C 71.6292,33.1294 71.4625,28.796 70.5,24.5C 72.5,24.5 74.5,24.5 76.5,24.5C 74.9988,29.6733 74.1655,35.0066 74,40.5C 71.5991,41.6023 69.0991,41.769 66.5,41C 65.8742,40.2496 65.3742,39.4162 65,38.5C 64.6489,33.8024 64.1489,29.1358 63.5,24.5 Z"/></g>
<g><path style="opacity:0.739" fill="#404141" d="M 114.5,24.5 C 115.833,24.5 117.167,24.5 118.5,24.5C 117.89,29.3167 118.223,31.3167 119.5,30.5C 121.167,30.5 122.833,30.5 124.5,30.5C 124.297,32.6382 123.297,34.3049 121.5,35.5C 122.167,36.8333 123.167,37.8333 124.5,38.5C 125.651,33.8329 125.651,29.1662 124.5,24.5C 125.833,24.5 127.167,24.5 128.5,24.5C 128.338,26.5273 128.505,28.5273 129,30.5C 130.333,29.1667 131.667,29.1667 133,30.5C 133.42,34.1914 133.92,37.8581 134.5,41.5C 125.161,41.6665 115.827,41.4998 106.5,41C 105.565,38.6194 105.232,36.1194 105.5,33.5C 104.178,33.33 103.011,33.6634 102,34.5C 101.666,36.8473 101.833,39.1806 102.5,41.5C 100.833,41.5 99.1667,41.5 97.5,41.5C 98.6182,38.1449 98.6182,34.8116 97.5,31.5C 99.6077,30.645 101.774,29.9784 104,29.5C 107.503,29.287 111.003,29.9537 114.5,31.5C 113.276,33.8392 113.276,36.1725 114.5,38.5C 115.651,33.8329 115.651,29.1662 114.5,24.5 Z M 129.5,32.5 C 130.793,34.3635 130.793,36.3635 129.5,38.5C 128.306,36.4844 128.306,34.4844 129.5,32.5 Z"/></g>
<g><path style="opacity:0.722" fill="#404141" d="M 159.5,24.5 C 160.833,24.5 162.167,24.5 163.5,24.5C 163.313,30.2124 163.646,35.8791 164.5,41.5C 155.069,41.5243 145.569,41.191 136,40.5C 135.333,37.5 135.333,34.5 136,31.5C 136.689,30.6433 137.522,29.9767 138.5,29.5C 143.188,30.5973 147.855,30.764 152.5,30C 154.155,32.5074 154.989,35.3408 155,38.5C 155.333,36.1667 155.667,33.8333 156,31.5C 157.079,29.6063 158.413,29.273 160,30.5C 160.18,28.5116 160.014,26.5116 159.5,24.5 Z M 138.5,32.5 C 140.924,34.2276 141.09,36.2276 139,38.5C 138.505,36.5273 138.338,34.5273 138.5,32.5 Z M 143.5,32.5 C 144.693,32.9704 145.36,33.9704 145.5,35.5C 145.167,36.5 144.833,37.5 144.5,38.5C 143.534,36.604 143.201,34.604 143.5,32.5 Z M 159.5,32.5 C 160.793,34.3635 160.793,36.3635 159.5,38.5C 158.306,36.4844 158.306,34.4844 159.5,32.5 Z"/></g>
<g><path style="opacity:0.719" fill="#404141" d="M 212.5,24.5 C 214.199,24.3398 215.866,24.5065 217.5,25C 220.197,33.7212 220.863,33.5546 219.5,24.5C 221.5,24.5 223.5,24.5 225.5,24.5C 223.812,29.9925 223.145,35.6591 223.5,41.5C 222.325,41.719 221.325,41.3857 220.5,40.5C 219.333,37.5 218.167,34.5 217,31.5C 216.833,32.6667 216.667,33.8333 216.5,35C 217.091,37.239 217.758,39.4057 218.5,41.5C 216.5,41.5 214.5,41.5 212.5,41.5C 213.833,35.8333 213.833,30.1667 212.5,24.5 Z"/></g>
<g><path style="opacity:0.759" fill="#404141" d="M 235.5,24.5 C 236.833,24.5 238.167,24.5 239.5,24.5C 239.173,29.2137 239.507,33.8804 240.5,38.5C 241.651,33.8329 241.651,29.1662 240.5,24.5C 241.833,24.5 243.167,24.5 244.5,24.5C 244.338,26.5273 244.505,28.5273 245,30.5C 246.333,29.1667 247.667,29.1667 249,30.5C 249.42,34.1914 249.92,37.8581 250.5,41.5C 242.344,41.2604 234.344,41.2604 226.5,41.5C 227.618,38.1449 227.618,34.8116 226.5,31.5C 227.689,30.5713 229.022,30.238 230.5,30.5C 230.515,41.0854 231.182,41.0854 232.5,30.5C 233.72,29.2889 234.887,29.2889 236,30.5C 236.18,28.5116 236.014,26.5116 235.5,24.5 Z M 234.5,32.5 C 236.924,34.2276 237.09,36.2276 235,38.5C 234.505,36.5273 234.338,34.5273 234.5,32.5 Z M 245.5,32.5 C 246.793,34.3635 246.793,36.3635 245.5,38.5C 244.306,36.4844 244.306,34.4844 245.5,32.5 Z"/></g>
<g><path style="opacity:0.573" fill="#404141" d="M 226.5,25.5 C 227.833,25.5 229.167,25.5 230.5,25.5C 230.5,26.5 230.5,27.5 230.5,28.5C 229.167,28.5 227.833,28.5 226.5,28.5C 226.5,27.5 226.5,26.5 226.5,25.5 Z"/></g>
<g><path style="opacity:0.763" fill="#404141" d="M 252.5,25.5 C 253.5,25.5 254.5,25.5 255.5,25.5C 255.5,26.5 255.5,27.5 255.5,28.5C 254.5,28.5 253.5,28.5 252.5,28.5C 252.5,27.5 252.5,26.5 252.5,25.5 Z"/></g>
<g><path style="opacity:0.793" fill="#404141" d="M 77.5,26.5 C 78.5,26.5 79.5,26.5 80.5,26.5C 80.5237,31.4525 80.857,36.4525 81.5,41.5C 80.1667,41.5 78.8333,41.5 77.5,41.5C 77.0343,36.4043 77.0343,31.4043 77.5,26.5 Z"/></g>
<g><path style="opacity:0.776" fill="#404141" d="M 83.5,26.5 C 84.5,26.5 85.5,26.5 86.5,26.5C 85.9768,31.0226 87.3101,32.0226 90.5,29.5C 92.5352,30.0412 94.5352,30.7078 96.5,31.5C 95.3818,34.8116 95.3818,38.1449 96.5,41.5C 93.2893,41.988 90.456,41.3213 88,39.5C 86.951,41.1066 85.451,41.7733 83.5,41.5C 83.0343,36.4043 83.0343,31.4043 83.5,26.5 Z M 90.5,33.5 C 91.6491,33.7911 92.3158,34.6244 92.5,36C 92.1667,36.8333 91.8333,37.6667 91.5,38.5C 90.5481,36.9547 90.2148,35.288 90.5,33.5 Z"/></g>
<g><path style="opacity:0.743" fill="#404141" d="M 182.5,29.5 C 185.786,30.2071 189.119,30.5405 192.5,30.5C 192.338,32.5273 192.505,34.5273 193,36.5C 194.019,34.7306 194.186,33.0639 193.5,31.5C 195.353,30.2404 197.186,30.2404 199,31.5C 199.689,30.6433 200.522,29.9767 201.5,29.5C 203.535,30.0412 205.535,30.7078 207.5,31.5C 206.382,34.8116 206.382,38.1449 207.5,41.5C 204.813,41.6641 202.146,41.4974 199.5,41C 198.718,38.2595 198.218,35.4262 198,32.5C 196.702,35.7511 195.035,38.7511 193,41.5C 190.919,39.2866 189.585,36.6199 189,33.5C 188.517,34.448 188.351,35.448 188.5,36.5C 186.712,36.2148 185.045,36.5481 183.5,37.5C 184.909,37.6541 186.576,37.8208 188.5,38C 186.906,41.4547 184.406,42.288 181,40.5C 180.013,36.5252 180.513,32.8585 182.5,29.5 Z M 201.5,32.5 C 203.924,34.2276 204.09,36.2276 202,38.5C 201.505,36.5273 201.338,34.5273 201.5,32.5 Z"/></g>
<g><path style="opacity:0.786" fill="#404141" d="M 251.5,30.5 C 252.833,30.5 254.167,30.5 255.5,30.5C 255.423,34.2148 255.756,37.8815 256.5,41.5C 254.833,41.5 253.167,41.5 251.5,41.5C 252.728,37.8162 252.728,34.1495 251.5,30.5 Z"/></g>
<g><path style="opacity:0.708" fill="#404141" d="M 167.5,48.5 C 169.435,49.1495 171.435,49.4828 173.5,49.5C 173.5,51.1667 173.5,52.8333 173.5,54.5C 171.408,54.4386 169.908,53.4386 169,51.5C 168.5,52 168,52.5 167.5,53C 171.234,55.7161 173.734,59.2161 175,63.5C 175.648,58.7959 175.481,54.1292 174.5,49.5C 175.833,49.5 177.167,49.5 178.5,49.5C 178.338,51.5273 178.505,53.5273 179,55.5C 180.113,54.2889 181.28,54.2889 182.5,55.5C 183.167,58.1667 183.833,60.8333 184.5,63.5C 185.724,61.1725 185.724,58.8392 184.5,56.5C 186.045,55.5481 187.712,55.2148 189.5,55.5C 189.187,58.2469 189.52,60.9135 190.5,63.5C 191.651,58.8329 191.651,54.1662 190.5,49.5C 191.833,49.5 193.167,49.5 194.5,49.5C 193.89,54.3167 194.223,56.3167 195.5,55.5C 199.6,54.9953 203.6,54.9953 207.5,55.5C 208.534,64.1471 208.534,62.1471 207.5,49.5C 209.167,49.5 210.833,49.5 212.5,49.5C 212.338,51.5273 212.505,53.5273 213,55.5C 214.587,54.273 215.921,54.6063 217,56.5C 217.667,65.8333 218.333,65.8333 219,56.5C 219.5,56 220,55.5 220.5,55C 222.876,54.9095 225.209,55.4095 227.5,56.5C 226.382,59.8116 226.382,63.1449 227.5,66.5C 224.289,66.988 221.456,66.3213 219,64.5C 217.302,65.733 215.302,66.3996 213,66.5C 205.645,66.0222 198.145,66.0222 190.5,66.5C 184.754,66.4736 179.254,65.8069 174,64.5C 171.174,66.3398 168.007,67.0065 164.5,66.5C 164.5,64.5 164.5,62.5 164.5,60.5C 166.638,60.703 168.305,61.703 169.5,63.5C 170.308,63.1924 170.975,62.6924 171.5,62C 169.333,59.8333 167.167,57.6667 165,55.5C 163.916,52.3411 164.75,50.0078 167.5,48.5 Z M 178.5,57.5 C 180.616,59.0881 180.949,61.0881 179.5,63.5C 178.534,61.604 178.201,59.604 178.5,57.5 Z M 198.5,58.5 C 201.38,59.5233 201.88,61.19 200,63.5C 197.676,62.2247 197.176,60.558 198.5,58.5 Z M 221.5,58.5 C 222.649,58.7911 223.316,59.6244 223.5,61C 223.167,61.8333 222.833,62.6667 222.5,63.5C 221.548,61.9547 221.215,60.288 221.5,58.5 Z"/></g>
<g><path style="opacity:0.712" fill="#404141" d="M 235.5,48.5 C 237.806,48.9926 240.139,49.3259 242.5,49.5C 242.5,51.1667 242.5,52.8333 242.5,54.5C 240.516,54.6168 238.85,53.9501 237.5,52.5C 237.167,52.8333 236.833,53.1667 236.5,53.5C 238.387,55.0404 240.22,56.7071 242,58.5C 242.769,61.0991 242.602,63.5991 241.5,66C 239.005,66.1575 236.672,66.3241 234.5,66.5C 233.534,64.604 233.201,62.604 233.5,60.5C 235.638,60.703 237.305,61.703 238.5,63.5C 238.833,63.1667 239.167,62.8333 239.5,62.5C 237.851,60.3501 236.018,58.3501 234,56.5C 233.109,53.5024 233.609,50.8357 235.5,48.5 Z"/></g>
<g><path style="opacity:0.735" fill="#404141" d="M 63.5,49.5 C 66.8499,49.335 70.1832,49.5017 73.5,50C 74.2638,52.0693 74.7638,54.236 75,56.5C 75.6891,55.6433 76.5224,54.9767 77.5,54.5C 79.5352,55.0412 81.5352,55.7078 83.5,56.5C 82.3818,59.8116 82.3818,63.1449 83.5,66.5C 76.6451,68.0238 73.4785,65.3572 74,58.5C 72.3005,59.4061 70.4672,59.7394 68.5,59.5C 68.6741,61.861 69.0074,64.1944 69.5,66.5C 67.5,66.5 65.5,66.5 63.5,66.5C 64.8333,60.8333 64.8333,55.1667 63.5,49.5 Z M 68.5,52.5 C 72.3404,53.5678 72.5071,55.2345 69,57.5C 68.5065,55.8659 68.3398,54.1992 68.5,52.5 Z M 77.5,58.5 C 78.6491,58.7911 79.3158,59.6244 79.5,61C 79.1667,61.8333 78.8333,62.6667 78.5,63.5C 77.5481,61.9547 77.2148,60.288 77.5,58.5 Z"/></g>
<g><path style="opacity:0.686" fill="#404141" d="M 286.5,63.5 C 286.5,64.5 286.5,65.5 286.5,66.5C 281.821,66.6658 277.155,66.4992 272.5,66C 271.718,63.2595 271.218,60.4262 271,57.5C 270.626,58.4162 270.126,59.2496 269.5,60C 270.833,62 270.833,64 269.5,66C 261.167,66.6667 252.833,66.6667 244.5,66C 243.209,62.5447 243.209,59.0447 244.5,55.5C 245.167,55.1667 245.833,54.8333 246.5,54.5C 251.188,55.5973 255.855,55.764 260.5,55C 262.155,57.5074 262.989,60.3408 263,63.5C 263.374,62.5838 263.874,61.7504 264.5,61C 263.24,59.1862 263.24,57.3529 264.5,55.5C 266.727,54.9475 269.061,54.9475 271.5,55.5C 271.5,54.1667 271.5,52.8333 271.5,51.5C 272.833,51.5 274.167,51.5 275.5,51.5C 275.864,55.4706 276.197,59.4706 276.5,63.5C 277.651,58.8329 277.651,54.1662 276.5,49.5C 277.833,49.5 279.167,49.5 280.5,49.5C 280.338,51.5273 280.505,53.5273 281,55.5C 282.333,54.1667 283.667,54.1667 285,55.5C 285.183,58.3647 285.683,61.0314 286.5,63.5 Z M 251.5,57.5 C 252.693,57.9704 253.36,58.9704 253.5,60.5C 253.167,61.5 252.833,62.5 252.5,63.5C 251.534,61.604 251.201,59.604 251.5,57.5 Z M 281.5,57.5 C 282.793,59.3635 282.793,61.3635 281.5,63.5C 280.306,61.4844 280.306,59.4844 281.5,57.5 Z"/></g>
<g><path style="opacity:0.573" fill="#404141" d="M 185.5,50.5 C 186.833,50.5 188.167,50.5 189.5,50.5C 189.5,51.5 189.5,52.5 189.5,53.5C 188.167,53.5 186.833,53.5 185.5,53.5C 185.5,52.5 185.5,51.5 185.5,50.5 Z"/></g>
<g><path style="opacity:0.748" fill="#404141" d="M 121.5,57.5 C 119.871,59.8577 118.705,62.5243 118,65.5C 116.989,66.3366 115.822,66.67 114.5,66.5C 111.652,54.6881 110.652,54.6881 111.5,66.5C 108.753,66.8134 106.086,66.48 103.5,65.5C 102.77,62.8908 102.27,60.2241 102,57.5C 99.6372,61.3924 98.4705,65.3924 98.5,69.5C 96.8333,70.8333 95.1667,70.8333 93.5,69.5C 96.1711,65.1909 95.5045,61.5243 91.5,58.5C 90.5581,58.6082 89.7247,58.9415 89,59.5C 88.6664,61.8473 88.833,64.1806 89.5,66.5C 87.8333,66.5 86.1667,66.5 84.5,66.5C 85.6182,63.1449 85.6182,59.8116 84.5,56.5C 88.3888,54.4181 92.3888,54.0848 96.5,55.5C 96.3398,57.1992 96.5065,58.8659 97,60.5C 98.7441,59.3508 98.9108,58.0175 97.5,56.5C 99.3529,55.2404 101.186,55.2404 103,56.5C 103.689,55.6433 104.522,54.9767 105.5,54.5C 111.216,54.7853 116.55,55.7853 121.5,57.5 Z M 115.5,57.5 C 117.337,57.6395 117.67,58.3061 116.5,59.5C 115.702,59.0431 115.369,58.3764 115.5,57.5 Z M 105.5,58.5 C 106.649,58.7911 107.316,59.6244 107.5,61C 107.167,61.8333 106.833,62.6667 106.5,63.5C 105.548,61.9547 105.215,60.288 105.5,58.5 Z"/></g>
<g><path style="opacity:0.738" fill="#404141" d="M 121.5,57.5 C 123.877,53.992 126.877,53.6587 130.5,56.5C 129.382,59.8116 129.382,63.1449 130.5,66.5C 127.833,66.5 125.167,66.5 122.5,66.5C 121.841,63.5448 121.508,60.5448 121.5,57.5 Z"/></g>
<g><path style="opacity:0.696" fill="#404141" d="M 137.5,54.5 C 138.75,54.5774 139.583,55.244 140,56.5C 140.689,55.6433 141.522,54.9767 142.5,54.5C 147.188,55.5973 151.855,55.764 156.5,55C 157,55.5 157.5,56 158,56.5C 158.455,59.8536 158.955,63.1869 159.5,66.5C 153.158,66.6662 146.825,66.4995 140.5,66C 139.565,63.6194 139.232,61.1194 139.5,58.5C 138.178,58.33 137.011,58.6634 136,59.5C 135.876,61.9357 136.376,64.269 137.5,66.5C 135.5,66.5 133.5,66.5 131.5,66.5C 132.618,63.1449 132.618,59.8116 131.5,56.5C 133.631,55.8313 135.631,55.1646 137.5,54.5 Z M 142.5,57.5 C 144.924,59.2276 145.09,61.2276 143,63.5C 142.505,61.5273 142.338,59.5273 142.5,57.5 Z M 147.5,57.5 C 148.693,57.9704 149.36,58.9704 149.5,60.5C 149.167,61.5 148.833,62.5 148.5,63.5C 147.534,61.604 147.201,59.604 147.5,57.5 Z"/></g>
<g><path style="opacity:0.738" fill="#404141" d="M 286.5,63.5 C 285.37,55.3058 288.37,52.9724 295.5,56.5C 294.382,59.8116 294.382,63.1449 295.5,66.5C 292.833,66.5 290.167,66.5 287.5,66.5C 287.737,65.209 287.404,64.209 286.5,63.5 Z"/></g>
<g><path style="opacity:0.755" fill="#404141" d="M 301.5,54.5 C 302.822,54.33 303.989,54.6634 305,55.5C 305.42,59.1914 305.92,62.8581 306.5,66.5C 303.167,66.5 299.833,66.5 296.5,66.5C 297.618,63.1449 297.618,59.8116 296.5,56.5C 298.291,55.8302 299.958,55.1635 301.5,54.5 Z M 301.5,57.5 C 302.793,59.3635 302.793,61.3635 301.5,63.5C 300.306,61.4844 300.306,59.4844 301.5,57.5 Z"/></g>
</svg>
